<?xml version="1.0" encoding="UTF-8"?>
<!DOCTYPE svg PUBLIC "-//W3C//DTD SVG 1.1//EN" "http://www.w3.org/Graphics/SVG/1.1/DTD/svg11.dtd">
<!-- Creator: CorelDRAW X7 -->
<svg xmlns="http://www.w3.org/2000/svg" xml:space="preserve" width="210mm" height="210mm" version="1.1" style="shape-rendering:geometricPrecision; text-rendering:geometricPrecision; image-rendering:optimizeQuality; fill-rule:evenodd; clip-rule:evenodd"
viewBox="0 0 1644 1644"
 xmlns:xlink="http://www.w3.org/1999/xlink"
 enable-background="new 235 -236.3 612 612">
 <defs>
  <style type="text/css">
   <![CDATA[
    .fil0 {fill:#EF7F1A}
   ]]>
  </style>
 </defs>
 <g id="Capa_x0020_1">
  <metadata id="CorelCorpID_0Corel-Layer"/>
  <g id="_1646861537216">
   <g>
    <g id="Right">
     <g>
      <path class="fil0" d="M746 483l0 0c-14,-13 -32,-21 -52,-21 -43,0 -77,35 -77,78 0,22 9,42 25,56l0 1 246 225 -246 226 0 0c-15,14 -25,35 -25,57 0,43 34,77 77,77 20,0 38,-8 52,-20l0 0 308 -283c16,-15 25,-35 25,-57 0,-22 -9,-42 -25,-57l-308 -282zm76 -483c-454,0 -822,368 -822,822 0,454 368,822 822,822 454,0 822,-368 822,-822 0,-454 -368,-822 -822,-822zm0 1490c-368,0 -668,-299 -668,-668 0,-368 300,-668 668,-668 369,0 668,300 668,668 0,369 -299,668 -668,668z"/>
     </g>
    </g>
   </g>
  </g>
 </g>
</svg>
