<?xml version="1.0" encoding="UTF-8"?>
<!DOCTYPE svg PUBLIC "-//W3C//DTD SVG 1.1//EN" "http://www.w3.org/Graphics/SVG/1.1/DTD/svg11.dtd">
<!-- Creator: CorelDRAW X7 -->
<svg xmlns="http://www.w3.org/2000/svg" xml:space="preserve" width="138.767mm" height="150.904mm" version="1.1" style="shape-rendering:geometricPrecision; text-rendering:geometricPrecision; image-rendering:optimizeQuality; fill-rule:evenodd; clip-rule:evenodd"
viewBox="0 0 156149 169806"
 xmlns:xlink="http://www.w3.org/1999/xlink">
 <defs>
  <style type="text/css">
   <![CDATA[
    .fil0 {fill:#818181}
   ]]>
  </style>
 </defs>
 <g id="Capa_x0020_1">
  <metadata id="CorelCorpID_0Corel-Layer"/>
  <path class="fil0" d="M119381 152621l2381 -1699c23984,-17113 34387,-48979 29131,-74352 -2787,-13448 -6131,-20837 -14376,-32394 -12030,-16858 -34701,-28678 -54581,-29794l-8583 -245c-1481,-2735 -2807,-12401 -4112,-14137l-25459 25330c1157,630 14534,4004 17263,4867l8625 2363c2936,755 5858,1777 8863,2373 115,-1244 -2977,-11745 -3327,-13382 3090,-555 7907,388 11075,711 5131,523 13057,3159 18186,5374 28003,12097 44570,43940 39552,73581 -2238,13227 -9726,31780 -26267,43583l-2857 2038c-21817,15566 -51942,14542 -72290,2454 -20198,-11999 -33683,-33001 -34424,-56525 -263,-8352 768,-16996 3421,-24804 489,-1439 827,-2400 1442,-3950 449,-1133 1551,-3039 1632,-4058l-6300 -3100c-2306,2883 -5158,13821 -6081,17524 -690,2759 -1051,5965 -1255,9011 -1040,15525 2253,33956 12601,48459 8189,11477 14052,17029 25763,24017 22329,13324 55892,13940 79977,-3245zm-69258 -75669c966,977 1404,1524 1978,2786 454,998 1126,2676 970,4012 -63,535 -2394,4791 -3135,6747 -2065,5454 -2584,12309 3999,13095 6750,806 15749,-5136 20634,-9092 7161,-5798 19333,-18741 19952,-29591 531,-9311 -8582,-7897 -15002,-5075 -942,414 -2563,1413 -3465,1583 -2217,418 -6421,-1620 -6999,-2986 1329,-1308 7257,-4400 9220,-5207 6778,-2788 16560,-5487 21908,1090 2681,3297 3746,4492 5681,8919 6702,15331 2128,31202 -9555,42263 -5196,4919 -10819,8997 -18280,10767 -9004,2136 -16976,1126 -24813,-2067 -3146,-1281 -6958,-3673 -8859,-5570 -2451,-2446 -3615,-6572 -3106,-11424 752,-7162 5419,-15662 8872,-20250zm50309 57673l-47147 0c283,-4289 2188,-7399 5107,-9979 1244,-1100 1691,-1238 3792,-920 8824,1337 17222,-318 24980,-4046 2114,-1016 1245,-1241 3466,-95 996,515 1922,1145 2949,1916 4040,3032 6750,7919 6853,13124zm-31733 -67145c1563,122 10886,964 12123,1664 2158,1222 2209,4663 -165,5767 -2254,1049 -11488,-1129 -12618,-782 -453,350 -953,1130 -1290,1475 -412,422 -969,770 -1565,1288 -523,1018 1735,10438 823,12575 -1077,2521 -4534,2605 -5849,340 -610,-1050 -620,-2566 -764,-3978 -271,-2672 -532,-5572 -947,-8231 -5006,-1376 -7773,-8624 -3173,-13307 3015,-3070 8189,-3188 11346,-77 1173,1156 1258,1839 2079,3266zm-41639 -36285c1981,499 2537,1482 4095,3037 1375,1372 2343,2377 3601,3611 4328,4243 548,8209 -2953,7518 -1979,-390 -6072,-5157 -7634,-6670 -1017,-985 -2523,-2755 -1590,-5086 577,-1441 2310,-2958 4481,-2410zm14668 14735c1969,590 2864,1986 3992,3103 1258,1246 2360,2361 3610,3604 4320,4295 178,8267 -3188,7383 -1554,-408 -2979,-2127 -3939,-3107 -2649,-2704 -6516,-5373 -5138,-8635 613,-1452 2409,-3023 4663,-2348z"/>
 </g>
</svg>
