<?xml version="1.0" encoding="UTF-8"?>
<!DOCTYPE svg PUBLIC "-//W3C//DTD SVG 1.1//EN" "http://www.w3.org/Graphics/SVG/1.1/DTD/svg11.dtd">
<!-- Creator: CorelDRAW X7 -->
<svg xmlns="http://www.w3.org/2000/svg" xml:space="preserve" width="138.767mm" height="150.904mm" version="1.1" style="shape-rendering:geometricPrecision; text-rendering:geometricPrecision; image-rendering:optimizeQuality; fill-rule:evenodd; clip-rule:evenodd"
viewBox="0 0 4739 5154"
 xmlns:xlink="http://www.w3.org/1999/xlink">
 <defs>
  <style type="text/css">
   <![CDATA[
    .fil0 {fill:#FEFEFE}
   ]]>
  </style>
 </defs>
 <g id="Capa_x0020_1">
  <metadata id="CorelCorpID_0Corel-Layer"/>
  <path class="fil0" d="M3623 4632l72 -52c728,-519 1044,-1486 885,-2256 -85,-408 -186,-633 -437,-983 -365,-512 -1053,-871 -1656,-905l-261 -7c-45,-83 -85,-376 -125,-429l-772 769c35,19 441,121 524,147l261 72c90,23 178,54 269,72 4,-38 -90,-356 -100,-406 93,-17 239,12 336,22 155,16 396,96 552,163 849,367 1352,1333 1200,2233 -68,401 -295,964 -797,1323l-87 62c-662,472 -1576,441 -2194,74 -613,-364 -1022,-1002 -1045,-1716 -8,-253 24,-515 104,-752 15,-44 25,-73 44,-120 14,-35 47,-92 49,-123l-191 -94c-70,87 -156,419 -184,531 -21,84 -32,181 -38,274 -32,471 68,1030 382,1471 249,348 426,516 782,729 678,404 1696,423 2427,-99zm-2102 -2297c30,30 43,47 60,85 14,30 34,81 30,122 -2,16 -73,145 -95,205 -63,165 -79,373 121,397 205,24 478,-156 626,-276 218,-176 587,-569 606,-898 16,-283 -261,-240 -456,-154 -28,13 -77,43 -105,48 -67,13 -195,-49 -212,-91 40,-39 220,-133 280,-158 205,-84 502,-166 665,33 81,101 113,137 172,271 203,465 65,947 -290,1283 -158,149 -328,273 -555,327 -273,64 -515,34 -753,-63 -95,-39 -211,-112 -269,-169 -74,-74 -109,-200 -94,-347 23,-217 164,-475 269,-615zm1527 1751l-1431 0c9,-130 67,-225 155,-303 38,-33 52,-38 115,-28 268,41 523,-10 758,-123 65,-31 38,-37 106,-3 30,16 58,35 89,59 123,92 205,240 208,398zm-963 -2038c47,4 330,29 368,51 65,37 67,141 -5,175 -68,31 -349,-35 -383,-24 -14,10 -29,34 -39,45 -13,12 -30,23 -48,39 -16,31 53,316 25,381 -32,77 -137,79 -177,11 -19,-32 -19,-78 -23,-121 -9,-81 -17,-169 -29,-250 -152,-42 -236,-262 -96,-404 91,-93 248,-97 344,-2 36,35 38,56 63,99zm-1264 -1101c60,15 77,45 125,92 41,42 71,72 109,110 131,128 16,249 -90,228 -60,-12 -184,-157 -231,-203 -31,-30 -77,-83 -49,-154 18,-44 70,-90 136,-73zm445 447c60,18 87,60 122,94 38,38 71,72 109,110 131,130 6,250 -97,224 -47,-13 -90,-65 -119,-95 -81,-82 -198,-163 -156,-262 19,-44 73,-92 141,-71z"/>
 </g>
</svg>
