<?xml version="1.0" encoding="UTF-8" standalone="no"?>
<!-- Created with Inkscape (http://www.inkscape.org/) -->

<svg
   xmlns:dc="http://purl.org/dc/elements/1.1/"
   xmlns:cc="http://creativecommons.org/ns#"
   xmlns:rdf="http://www.w3.org/1999/02/22-rdf-syntax-ns#"
   xmlns:svg="http://www.w3.org/2000/svg"
   xmlns="http://www.w3.org/2000/svg"
   xmlns:sodipodi="http://sodipodi.sourceforge.net/DTD/sodipodi-0.dtd"
   xmlns:inkscape="http://www.inkscape.org/namespaces/inkscape"
   width="210mm"
   height="297mm"
   viewBox="0 0 744.09448819 1052.3622047"
   id="svg2"
   version="1.1"
   inkscape:version="0.91 r13725"
   sodipodi:docname="logo-u360gts-white.svg">
  <defs
     id="defs4" />
  <sodipodi:namedview
     id="base"
     pagecolor="#111111"
     bordercolor="#666666"
     borderopacity="1.0"
     inkscape:pageopacity="0"
     inkscape:pageshadow="2"
     inkscape:zoom="1.4"
     inkscape:cx="280.0369"
     inkscape:cy="882.91901"
     inkscape:document-units="px"
     inkscape:current-layer="layer1"
     showgrid="false"
     showguides="true"
     inkscape:guide-bbox="true"
     inkscape:window-width="1536"
     inkscape:window-height="803"
     inkscape:window-x="-8"
     inkscape:window-y="-8"
     inkscape:window-maximized="1">
    <sodipodi:guide
       position="506.11608,905.66966"
       orientation="1,0"
       id="guide3355" />
    <sodipodi:guide
       position="509.36943,897.14175"
       orientation="0,1"
       id="guide3357" />
    <sodipodi:guide
       position="494.82143,902.50002"
       orientation="1,0"
       id="guide3359" />
  </sodipodi:namedview>
  <metadata
     id="metadata7">
    <rdf:RDF>
      <cc:Work
         rdf:about="">
        <dc:format>image/svg+xml</dc:format>
        <dc:type
           rdf:resource="http://purl.org/dc/dcmitype/StillImage" />
        <dc:title></dc:title>
      </cc:Work>
    </rdf:RDF>
  </metadata>
  <g
     inkscape:label="Capa 1"
     inkscape:groupmode="layer"
     id="layer1"
     style="display:inline">
    <g
       style="font-style:normal;font-weight:normal;font-size:105.05636597px;line-height:125%;font-family:sans-serif;letter-spacing:0px;word-spacing:0px;fill:#ffffff;fill-opacity:1;stroke:none;stroke-width:1px;stroke-linecap:butt;stroke-linejoin:miter;stroke-opacity:1"
       id="text3336">
      <path
         d="m 157.95178,210.25189 0,-34.7794 9.43866,0 0,34.42032 q 0,8.15623 3.18042,12.25999 3.18041,4.05247 9.54125,4.05247 7.64326,0 12.0548,-4.87322 4.46285,-4.87322 4.46285,-13.28593 l 0,-32.57363 9.43866,0 0,57.4527 -9.43866,0 0,-8.8231 q -3.4369,5.2323 -8.00234,7.79716 -4.51414,2.51355 -10.5159,2.51355 -9.90033,0 -15.03003,-6.15565 -5.12971,-6.15564 -5.12971,-18.00526 z m 23.75054,-36.16442 0,0 z"
         id="path3341"
         inkscape:connector-curvature="0"
         style="fill:#ffffff;fill-opacity:1" />
      <path
         d="m 258.34012,191.63106 q 7.43807,1.59021 11.59313,6.61732 4.20636,5.02711 4.20636,12.41388 0,11.33665 -7.79715,17.5436 -7.79716,6.20694 -22.16033,6.20694 -4.82192,0 -9.95163,-0.97464 -5.07841,-0.92335 -10.51589,-2.82134 l 0,-10.00293 q 4.30895,2.51356 9.43865,3.79599 5.12971,1.28242 10.72109,1.28242 9.74644,0 14.82485,-3.84728 5.1297,-3.84728 5.1297,-11.18276 0,-6.77121 -4.77062,-10.56719 -4.71933,-3.84728 -13.18335,-3.84728 l -8.92568,0 0,-8.51531 9.33606,0 q 7.64326,0 11.69573,-3.02652 4.05246,-3.07783 4.05246,-8.8231 0,-5.89916 -4.20635,-9.02828 -4.15507,-3.18042 -11.95222,-3.18042 -4.25765,0 -9.13087,0.92335 -4.87322,0.92335 -10.72109,2.87264 l 0,-9.23347 q 5.89916,-1.64151 11.02887,-2.46226 5.181,-0.82076 9.74644,-0.82076 11.79832,0 18.67213,5.3862 6.8738,5.33489 6.8738,14.46576 0,6.36084 -3.64209,10.77239 -3.64209,4.36025 -10.362,6.05305 z"
         id="path3343"
         inkscape:connector-curvature="0"
         style="fill:#ffffff;fill-opacity:1" />
      <path
         d="m 317.28043,190.50252 q -6.9764,0 -11.08016,4.77063 -4.05247,4.77062 -4.05247,13.08075 0,8.25882 4.05247,13.08075 4.10376,4.77062 11.08016,4.77062 6.9764,0 11.02887,-4.77062 4.10376,-4.82193 4.10376,-13.08075 0,-8.31013 -4.10376,-13.08075 -4.05247,-4.77063 -11.02887,-4.77063 z m 20.57012,-32.47103 0,9.43866 q -3.89858,-1.8467 -7.89975,-2.82134 -3.94987,-0.97465 -7.84845,-0.97465 -10.25941,0 -15.69689,6.92511 -5.3862,6.9251 -6.15565,20.92919 3.02653,-4.46284 7.59196,-6.8225 4.56544,-2.41097 10.05423,-2.41097 11.54183,0 18.21045,7.0277 6.71991,6.9764 6.71991,19.03121 0,11.79832 -6.9764,18.92861 -6.9764,7.13029 -18.56953,7.13029 -13.28594,0 -20.31363,-10.15682 -7.0277,-10.20811 -7.0277,-29.5471 0,-18.15916 8.61791,-28.93154 8.6179,-10.82368 23.13497,-10.82368 3.89857,0 7.84845,0.76946 4.00117,0.76946 8.31012,2.30837 z"
         id="path3345"
         inkscape:connector-curvature="0"
         style="fill:#ffffff;fill-opacity:1" />
      <path
         d="m 382.88936,163.16119 q -8.00234,0 -12.05481,7.89975 -4.00117,7.84845 -4.00117,23.64794 0,15.7482 4.00117,23.64794 4.05247,7.84845 12.05481,7.84845 8.05364,0 12.05481,-7.84845 4.05247,-7.89974 4.05247,-23.64794 0,-15.79949 -4.05247,-23.64794 -4.00117,-7.89975 -12.05481,-7.89975 z m 0,-8.20753 q 12.87556,0 19.64677,10.20812 6.82251,10.15681 6.82251,29.5471 0,19.33899 -6.82251,29.5471 -6.77121,10.15682 -19.64677,10.15682 -12.87556,0 -19.69807,-10.15682 -6.77121,-10.20811 -6.77121,-29.5471 0,-19.39029 6.77121,-29.5471 6.82251,-10.20812 19.69807,-10.20812 z"
         id="path3347"
         inkscape:connector-curvature="0"
         style="fill:#ffffff;fill-opacity:1" />
      <path
         d="m 464.09258,203.53197 q 0,-10.25941 -4.25765,-15.90208 -4.20636,-5.64268 -11.84962,-5.64268 -7.59197,0 -11.84962,5.64268 -4.20636,5.64267 -4.20636,15.90208 0,10.20812 4.20636,15.85079 4.25765,5.64268 11.84962,5.64268 7.64326,0 11.84962,-5.64268 4.25765,-5.64267 4.25765,-15.85079 z m 9.43866,22.26293 q 0,14.67095 -6.51473,21.80124 -6.51472,7.18159 -19.95455,7.18159 -4.97581,0 -9.38736,-0.76945 -4.41155,-0.71816 -8.56661,-2.25708 l 0,-9.18217 q 4.15506,2.25707 8.20753,3.33431 4.05247,1.07724 8.25883,1.07724 9.28476,0 13.9015,-4.87322 4.61673,-4.82192 4.61673,-14.61966 l 0,-4.66803 q -2.92393,5.0784 -7.48937,7.59196 -4.56544,2.51356 -10.92627,2.51356 -10.56719,0 -17.03062,-8.05364 -6.46343,-8.05364 -6.46343,-21.33958 0,-13.33723 6.46343,-21.39087 6.46343,-8.05363 17.03062,-8.05363 6.36083,0 10.92627,2.51355 4.56544,2.51356 7.48937,7.59197 l 0,-8.7205 9.43866,0 0,50.32241 z"
         id="path3349"
         inkscape:connector-curvature="0"
         style="fill:#ffffff;fill-opacity:1" />
      <path
         d="m 492.93122,155.18399 37.94911,-38.88111 -28.5804,39.22676 c -0.003,5.9285 0.0344,21.40829 0.009,27.27832 l 0,31.18861 c 0,4.68513 0.63267,7.69456 1.898,9.02828 1.29952,1.33373 3.91567,2.00059 7.84845,2.00059 l 9.69514,0 0,7.89975 -9.69514,0 c -7.28419,0 -12.3113,-1.35082 -15.08134,-4.05247 -2.77004,-2.73585 -4.15506,-7.69456 -4.15506,-14.87615 l 0,-31.18861"
         id="path3351"
         inkscape:connector-curvature="0"
         sodipodi:nodetypes="ccccscsccscsc"
         style="fill:#ffffff;fill-opacity:1" />
      <path
         d="m 570.84177,177.16529 0,8.92569 q -4.00117,-2.05189 -8.31013,-3.07783 -4.30895,-1.02594 -8.92568,-1.02594 -7.0277,0 -10.5672,2.15448 -3.4882,2.15447 -3.4882,6.46343 0,3.28301 2.51356,5.181 2.51355,1.84669 10.10552,3.5395 l 3.23171,0.71815 q 10.05423,2.15448 14.26058,6.10435 4.25766,3.89858 4.25766,10.92628 0,8.00234 -6.36084,12.67037 -6.30953,4.66803 -17.3897,4.66803 -4.61673,0 -9.64384,-0.92335 -4.97582,-0.87205 -10.5159,-2.66744 l 0,-9.74644 q 5.2323,2.71874 10.31071,4.10376 5.07841,1.33372 10.05422,1.33372 6.66862,0 10.25941,-2.25707 3.5908,-2.30836 3.5908,-6.46342 0,-3.84728 -2.61615,-5.89917 -2.56486,-2.05188 -11.33665,-3.94987 l -3.28301,-0.76945 q -8.7718,-1.8467 -12.67038,-5.64268 -3.89857,-3.84728 -3.89857,-10.5159 0,-8.10493 5.74527,-12.51648 5.74527,-4.41154 16.31246,-4.41154 5.2323,0 9.84903,0.76945 4.61674,0.76946 8.51532,2.30837 z"
         id="path3353"
         inkscape:connector-curvature="0"
         style="fill:#ffffff;fill-opacity:1" />
    </g>
    <path
       style="fill:#ffffff;fill-opacity:1;stroke:#000000;stroke-width:6.98400021;stroke-miterlimit:4;stroke-dasharray:none;stroke-opacity:0"
       d="m 492.32142,167.18363 c 3.44692,0.28613 6.91149,0.31237 10.35714,0 l 0.17858,8.30358 c -3.55567,0.12607 -7.05445,0.11201 -10.49107,0 z"
       id="rect4294"
       inkscape:connector-curvature="0"
       sodipodi:nodetypes="ccccc" />
  </g>
  <g
     inkscape:groupmode="layer"
     id="layer2"
     inkscape:label="Capa 2"
     style="display:inline">
    <g
       id="g4259"
       style="fill:#ffffff;stroke:#000000;stroke-opacity:1;fill-opacity:1"
       transform="translate(0.12626932,-0.88388347)">
      <g
         style="fill:#ffffff;stroke:#000000;stroke-opacity:1;fill-opacity:1"
         id="g4246">
        <path
           style="color:#000000;font-style:normal;font-variant:normal;font-weight:normal;font-stretch:normal;font-size:medium;line-height:normal;font-family:sans-serif;text-indent:0;text-align:start;text-decoration:none;text-decoration-line:none;text-decoration-style:solid;text-decoration-color:#000000;letter-spacing:normal;word-spacing:normal;text-transform:none;direction:ltr;block-progression:tb;writing-mode:lr-tb;baseline-shift:baseline;text-anchor:start;white-space:normal;clip-rule:nonzero;display:inline;overflow:visible;visibility:visible;opacity:1;isolation:auto;mix-blend-mode:normal;color-interpolation:sRGB;color-interpolation-filters:linearRGB;solid-color:#000000;solid-opacity:1;fill:#ffffff;fill-opacity:1;fill-rule:evenodd;stroke:none;stroke-width:6.98400021;stroke-linecap:butt;stroke-linejoin:miter;stroke-miterlimit:4;stroke-dasharray:none;stroke-dashoffset:0;stroke-opacity:1;color-rendering:auto;image-rendering:auto;shape-rendering:auto;text-rendering:auto;enable-background:accumulate"
           d="m 492.1543,157.18945 c -7.03998,0.26693 -13.12331,1.00728 -17.6875,2.1211 -2.2821,0.5569 -4.17629,1.17779 -5.78516,2.0664 -0.80443,0.44431 -1.55532,0.95126 -2.24219,1.72852 -0.68687,0.77726 -1.33007,1.97643 -1.33007,3.35351 0,1.57034 0.81632,2.86536 1.625,3.66602 0.80867,0.80066 1.68077,1.31265 2.63867,1.77148 1.91578,0.91767 4.23946,1.57617 7.03515,2.14258 5.59138,1.13282 13.01239,1.79102 21.21875,1.79102 4.8729,0 6.56227,0.0622 11.10743,-0.29883 l -0.55274,-6.96289 c -10.73482,0.25142 -22.17679,1.11645 -33.00781,-2.14844 0.39362,-0.11487 0.49882,-0.21673 0.94726,-0.32617 3.84576,-0.93849 9.38268,-1.67202 16.07562,-1.92578 z"
           id="path4221"
           inkscape:connector-curvature="0"
           sodipodi:nodetypes="csssssssscccccc" />
        <path
           style="fill:#ffffff;stroke:#000000;stroke-width:0;stroke-miterlimit:4;stroke-dasharray:none;stroke-opacity:1;fill-opacity:1"
           d="m 508.16987,168.56553 4.10375,3.00679 -3.54342,3.9538 -2.8963,-3.06991 z"
           id="rect4243"
           inkscape:connector-curvature="0"
           sodipodi:nodetypes="ccccc" />
      </g>
      <g
         style="fill:#ffffff;stroke:#000000;stroke-opacity:1;fill-opacity:1"
         id="g4253">
        <path
           style="color:#000000;font-style:normal;font-variant:normal;font-weight:normal;font-stretch:normal;font-size:medium;line-height:normal;font-family:sans-serif;text-indent:0;text-align:start;text-decoration:none;text-decoration-line:none;text-decoration-style:solid;text-decoration-color:#000000;letter-spacing:normal;word-spacing:normal;text-transform:none;direction:ltr;block-progression:tb;writing-mode:lr-tb;baseline-shift:baseline;text-anchor:start;white-space:normal;clip-rule:nonzero;display:inline;overflow:visible;visibility:visible;opacity:1;isolation:auto;mix-blend-mode:normal;color-interpolation:sRGB;color-interpolation-filters:linearRGB;solid-color:#000000;solid-opacity:1;fill:#ffffff;fill-opacity:1;fill-rule:evenodd;stroke:none;stroke-width:6.9839797;stroke-linecap:butt;stroke-linejoin:miter;stroke-miterlimit:4;stroke-dasharray:none;stroke-dashoffset:0;stroke-opacity:1;color-rendering:auto;image-rendering:auto;shape-rendering:auto;text-rendering:auto;enable-background:accumulate"
           d="m 502.74219,157.17578 0.0198,6.97852 c 6.77279,0.23955 12.35141,0.97261 16.26534,1.91601 0.46345,0.11171 0.57611,0.21648 0.98243,0.33399 -1.86387,0.54509 -3.90033,1.11037 -7.00196,1.51953 l 0.91211,6.92383 c 4.27851,-0.56442 7.75728,-1.30999 10.44531,-2.31446 1.34402,-0.50223 2.49826,-1.04681 3.55079,-1.88086 0.21978,-0.17416 0.41224,-0.47711 0.63086,-0.70117 0.81553,-1.08593 1.39273,-1.86456 1.56608,-3.06603 0.20566,-1.08881 -0.62318,-3.02211 -1.31804,-3.80116 -0.69485,-0.77904 -1.4555,-1.28524 -2.26953,-1.73046 -1.62806,-0.89046 -3.54665,-1.5163 -5.86133,-2.07422 -4.62936,-1.11585 -10.80034,-1.85163 -17.92187,-2.10352 z"
           id="path4212"
           inkscape:connector-curvature="0"
           sodipodi:nodetypes="ccscccssccssscc" />
        <path
           style="fill:#ffffff;stroke:#000000;stroke-width:0;stroke-miterlimit:4;stroke-dasharray:none;stroke-opacity:1;fill-opacity:1"
           d="m 510.81769,168.17771 2.22932,-0.25141 0.89776,6.93826 -2.46033,0.30646 2.01186,-3.80386 z"
           id="rect4250"
           inkscape:connector-curvature="0"
           sodipodi:nodetypes="cccccc" />
      </g>
    </g>
    <ellipse
       style="fill:#ffffff;fill-opacity:1;stroke:#000000;stroke-width:6.98400021;stroke-miterlimit:4;stroke-dasharray:none;stroke-opacity:0"
       id="path4269"
       cx="508.10269"
       cy="171.06757"
       rx="1.9866056"
       ry="2.7678571" />
    <path
       style="fill:#ffffff;fill-opacity:1;stroke:#000000;stroke-width:6.98400021;stroke-miterlimit:4;stroke-dasharray:none;stroke-opacity:0"
       d="m 508.26661,167.70084 2.47051,3.14095 -1.88474,3.77646 -0.37022,-3.77391 z"
       id="rect4271"
       inkscape:connector-curvature="0"
       sodipodi:nodetypes="ccccc" />
  </g>
</svg>
