<?xml version="1.0" encoding="UTF-8"?>
<!DOCTYPE svg PUBLIC "-//W3C//DTD SVG 1.1//EN" "http://www.w3.org/Graphics/SVG/1.1/DTD/svg11.dtd">
<!-- Creator: CorelDRAW X7 -->
<svg xmlns="http://www.w3.org/2000/svg" xml:space="preserve" width="161.925mm" height="161.925mm" version="1.1" style="shape-rendering:geometricPrecision; text-rendering:geometricPrecision; image-rendering:optimizeQuality; fill-rule:evenodd; clip-rule:evenodd"
viewBox="0 0 4487 4487"
 xmlns:xlink="http://www.w3.org/1999/xlink">
 <defs>
  <style type="text/css">
   <![CDATA[
    .fil0 {fill:#FEFEFE}
   ]]>
  </style>
 </defs>
 <g id="Capa_x0020_1">
  <metadata id="CorelCorpID_0Corel-Layer"/>
  <g id="_1646861532448">
   <g>
    <path class="fil0" d="M4192 906c185,-247 295,-503 295,-685 0,-60 -12,-106 -34,-140 -3,-5 -9,-16 -21,-27 -11,-11 -21,-17 -24,-18 -36,-24 -82,-36 -141,-36 -183,0 -439,110 -686,295 -199,149 -398,359 -674,650 -47,50 -96,101 -148,156l-535 -160 2 -2c22,-22 34,-53 34,-84 0,-32 -13,-63 -35,-85l-96 -96c-23,-23 -53,-36 -85,-36 -32,0 -63,13 -85,35l-144 145 -77 -23c17,-21 26,-47 25,-73 1,-32 -12,-63 -34,-85l-97 -97c-23,-22 -53,-35 -85,-35 -32,0 -62,13 -85,35l-132 133 -544 -163c-12,-4 -25,-6 -39,-6 -38,1 -74,15 -100,41l-191 191c-22,22 -34,51 -34,79 -1,41 22,79 58,98l1144 639c5,3 21,15 27,21l326 326c-305,321 -576,632 -788,902 -20,26 -38,50 -57,74l-884 -80c-4,-1 -9,-1 -15,-1 -41,1 -80,17 -110,45l-89 89c-22,22 -34,51 -34,79 -1,43 25,83 64,100l622 296c6,2 20,12 24,17l52 51c-16,45 -25,85 -25,120 0,46 15,86 43,114l3 2 0 1c30,28 68,42 115,42 33,0 73,-8 118,-24l53 52c4,4 13,18 16,23l295 621c18,40 57,65 99,65l1 0c29,0 57,-11 78,-33l91 -91c27,-29 43,-68 44,-110 0,-5 0,-8 0,-11l-81 -887c24,-18 49,-37 74,-57 271,-212 582,-483 903,-788l326 327c5,5 17,21 21,28l637 1141c20,36 57,59 99,59 29,0 57,-12 79,-33l193 -193c25,-26 39,-61 39,-100 0,-13 -2,-26 -5,-38l-163 -543 132 -133c23,-22 35,-53 35,-85 0,-31 -12,-61 -34,-84l-98 -97c-22,-22 -53,-35 -84,-35 -27,0 -53,9 -74,25l-22 -76 144 -145c22,-22 35,-53 35,-85 0,-31 -12,-61 -35,-84l-97 -97c-22,-22 -53,-35 -85,-35 -32,0 -63,13 -84,35l-1 1 -161 -534c56,-53 108,-103 158,-150 290,-276 500,-474 648,-673z"/>
   </g>
   <g>
   </g>
   <g>
   </g>
   <g>
   </g>
   <g>
   </g>
   <g>
   </g>
   <g>
   </g>
   <g>
   </g>
   <g>
   </g>
   <g>
   </g>
   <g>
   </g>
   <g>
   </g>
   <g>
   </g>
   <g>
   </g>
   <g>
   </g>
   <g>
   </g>
  </g>
 </g>
</svg>
