<?xml version="1.0" encoding="UTF-8"?>
<!DOCTYPE svg PUBLIC "-//W3C//DTD SVG 1.1//EN" "http://www.w3.org/Graphics/SVG/1.1/DTD/svg11.dtd">
<!-- Creator: CorelDRAW X7 -->
<svg xmlns="http://www.w3.org/2000/svg" xml:space="preserve" width="83.2194mm" height="19.131mm" version="1.1" style="shape-rendering:geometricPrecision; text-rendering:geometricPrecision; image-rendering:optimizeQuality; fill-rule:evenodd; clip-rule:evenodd"
viewBox="0 0 1961 451"
 xmlns:xlink="http://www.w3.org/1999/xlink">
 <defs>
  <style type="text/css">
   <![CDATA[
    .fil3 {fill:#FEFEFE}
    .fil0 {fill:#EF7F1A}
    .fil1 {fill:#FEFEFE;fill-rule:nonzero}
    .fil2 {fill:#C5C6C6;fill-rule:nonzero}
   ]]>
  </style>
 </defs>
 <g id="Capa_x0020_1">
  <metadata id="CorelCorpID_0Corel-Layer"/>
  <g id="_2115808559840">
   <path class="fil0" d="M317 405l6 -4c64,-46 92,-130 78,-198 -8,-35 -17,-55 -39,-86 -31,-44 -92,-76 -144,-79l-23 0c-4,-8 -8,-33 -11,-38l-68 67c3,2 39,11 46,13l23 6c8,2 16,5 24,7 0,-4 -8,-31 -9,-36 8,-1 21,1 29,2 14,1 35,8 48,14 75,32 119,117 105,196 -6,35 -25,84 -69,115l-8 6c-58,41 -138,38 -192,6 -54,-31 -89,-87 -91,-150 -1,-22 2,-45 9,-66 1,-3 2,-6 4,-10 1,-3 4,-8 4,-11l-17 -8c-6,8 -13,37 -16,46 -2,8 -3,16 -3,24 -3,42 6,91 33,129 22,31 38,45 69,64 59,35 148,37 212,-9z"/>
   <g>
    <path class="fil1" d="M711 293c-10,0 -19,-3 -27,-11 -7,-7 -11,-16 -11,-27l0 -12 152 0 0 -51 -89 0 0 -51 89 0 0 -50 -152 0 0 -13c0,-10 4,-19 11,-26 8,-8 17,-12 27,-12l114 0 0 0 0 0 13 0c10,0 19,4 26,12 8,7 11,16 11,26l0 64c0,9 -3,18 -9,25 6,7 9,15 9,25l0 50 0 1 0 0 0 12c0,11 -3,20 -11,27 -7,8 -16,11 -26,11l-127 0z"/>
    <path class="fil1" d="M1103 255c0,11 -4,20 -11,27 -8,8 -16,11 -27,11l-126 0c-11,0 -20,-3 -27,-11 -8,-7 -11,-16 -11,-27l0 -177c0,-10 3,-19 11,-26 7,-8 16,-12 27,-12l126 0c11,0 19,4 27,12 7,7 11,16 11,26l0 13 -152 0 0 152 101 0 0 -51 -63 0 -38 -50 114 0c11,0 19,3 27,11 7,7 11,16 11,26l0 76z"/>
    <path class="fil1" d="M1280 91l-101 0 0 152 101 0 0 -152zm12 -51c11,0 20,4 27,12 8,7 11,16 11,26l0 177c0,11 -3,20 -11,27 -7,8 -16,11 -27,11l-126 0c-10,0 -19,-3 -27,-11 -7,-7 -11,-16 -11,-27l0 -177c0,-10 4,-19 11,-26 8,-8 17,-12 27,-12l126 0z"/>
    <path class="fil0" d="M1749 88c9,0 16,3 22,9 5,6 8,13 8,21l0 10 -80 0 0 161 -40 0 0 -161 -80 0 0 -10c0,-8 3,-15 8,-21 6,-6 13,-9 22,-9l140 0z"/>
    <path class="fil0" d="M1528 88c9,0 16,3 22,9 6,6 8,13 8,21l0 10 -160 0 0 121 120 0 0 -40 -90 -40 130 0 0 90c0,8 -2,15 -8,21 -6,6 -13,9 -22,9l-140 0c-8,0 -16,-3 -21,-9 -6,-6 -9,-13 -9,-21l0 -141c0,-8 3,-15 9,-21 5,-6 13,-9 21,-9l140 0z"/>
    <path class="fil0" d="M643 259c0,8 -3,15 -9,21 -5,6 -12,9 -21,9l-100 0c-9,0 -16,-3 -22,-9 -5,-6 -8,-13 -8,-21l0 -171 40 0 0 161 80 0 0 -161 40 0 0 171z"/>
    <path class="fil0" d="M1930 88c8,0 15,3 21,9 6,6 9,13 9,21l0 10 -121 0 0 41 91 0c8,0 15,2 21,8 6,6 9,13 9,22l0 60c0,8 -3,15 -9,21 -6,6 -13,9 -21,9l-101 0c-8,0 -15,-3 -21,-9 -6,-6 -9,-13 -9,-21l0 -10 121 0 0 -40 -91 0c-8,0 -15,-3 -21,-9 -6,-6 -9,-13 -9,-21l0 -61c0,-8 3,-15 9,-21 6,-6 13,-9 21,-9l101 0z"/>
    <path class="fil2" d="M489 345l11 0 0 38c0,6 1,10 3,13 3,3 7,4 12,4 5,0 9,-1 12,-4 2,-3 4,-7 4,-13l0 -38 10 0 0 39c0,9 -2,15 -6,19 -5,5 -11,7 -20,7 -8,0 -15,-2 -19,-7 -4,-4 -7,-10 -7,-19l0 -39zm66 63l0 -65 40 38c1,1 2,2 3,4 1,1 2,2 4,4l0 -44 9 0 0 65 -41 -39c-1,-1 -2,-2 -3,-3 -1,-1 -2,-2 -3,-4l0 44 -9 0zm71 0l0 -63 10 0 0 63 -10 0zm44 2l-28 -65 11 0 14 34c1,2 1,3 2,5 0,2 1,3 1,5 1,-2 1,-3 2,-5 0,-2 1,-3 2,-5l14 -34 10 0 -28 65zm34 -2l0 -63 35 0 0 9 -24 0 0 16 24 0 0 9 -24 0 0 20 24 0 0 9 -35 0zm57 -36l2 0c6,0 9,-1 11,-2 2,-1 3,-3 3,-6 0,-4 -1,-6 -3,-8 -2,-1 -6,-2 -11,-2l-2 0 0 18zm0 8l0 28 -10 0 0 -63 14 0c4,0 8,1 10,1 2,1 4,2 6,3 2,1 3,3 4,6 1,2 2,5 2,8 0,5 -1,9 -4,11 -2,3 -6,5 -10,6l21 28 -11 0 -21 -28 -1 0zm36 15l8 -3c1,3 2,5 4,6 2,2 5,2 8,2 3,0 5,-1 7,-2 2,-2 3,-4 3,-7 0,-4 -3,-7 -9,-10 -1,0 -2,-1 -2,-1 -7,-3 -12,-6 -14,-9 -2,-3 -4,-6 -4,-10 0,-5 2,-9 6,-12 3,-3 8,-5 13,-5 5,0 9,1 12,3 3,1 5,4 6,7l-8 4c-1,-2 -2,-3 -4,-4 -1,-1 -3,-1 -5,-1 -3,0 -5,0 -7,2 -1,1 -2,3 -2,6 0,3 4,7 11,10 0,0 1,1 1,1 6,3 10,5 13,8 2,3 3,6 3,10 0,6 -2,11 -5,14 -4,4 -9,6 -16,6 -5,0 -9,-2 -13,-4 -3,-2 -5,-6 -6,-11zm65 -12l17 0 -6 -14c-1,-1 -1,-2 -2,-3 0,-1 0,-3 -1,-4 0,1 0,3 -1,4 0,1 -1,2 -1,3l-6 14zm28 25l-7 -16 -25 0 -8 16 -10 0 30 -65 30 65 -10 0zm16 0l0 -63 10 0 0 54 23 0 0 9 -33 0zm65 -17l10 0 0 1c0,3 1,5 2,7 2,1 5,2 9,2 3,0 6,-1 8,-3 2,-1 3,-4 3,-8 0,-3 -1,-6 -3,-8 -2,-2 -5,-3 -9,-3 -1,0 -1,0 -1,0 -1,0 -1,0 -1,0l0 -8c0,0 0,0 1,0 0,0 0,0 1,0 3,0 6,-1 8,-2 2,-2 3,-4 3,-7 0,-3 -1,-5 -3,-7 -1,-1 -4,-2 -7,-2 -3,0 -5,1 -7,2 -1,2 -2,4 -2,6l-10 0c1,-5 2,-9 6,-12 3,-3 8,-4 14,-4 5,0 10,1 13,4 4,3 5,7 5,12 0,4 -1,7 -2,10 -2,2 -5,4 -8,4 4,1 7,3 9,6 2,2 3,6 3,11 0,5 -2,10 -6,13 -4,3 -9,5 -16,5 -6,0 -11,-2 -14,-5 -4,-4 -6,-8 -6,-14zm63 -2c0,4 1,7 3,9 2,2 5,3 8,3 4,0 7,-1 9,-3 2,-2 3,-5 3,-9 0,-4 -1,-7 -3,-9 -2,-3 -5,-4 -8,-4 -4,0 -6,1 -9,4 -2,2 -3,5 -3,9zm6 -19c1,-1 3,-1 4,-1 1,-1 3,-1 4,-1 6,0 10,2 14,6 4,3 5,8 5,14 0,7 -2,12 -6,16 -4,4 -9,6 -16,6 -6,0 -11,-2 -15,-6 -4,-4 -5,-9 -5,-15 0,-7 4,-17 13,-30l1 -1 11 -16 8 4 -18 24zm82 8c0,10 -2,18 -6,23 -4,6 -10,9 -17,9 -7,0 -13,-3 -16,-9 -4,-6 -6,-14 -6,-24 0,-10 2,-18 6,-24 4,-5 9,-8 16,-8 7,0 13,3 17,8 4,6 6,14 6,25zm-23 23c4,0 7,-2 9,-6 2,-4 3,-10 3,-18 0,-8 -1,-13 -3,-17 -2,-5 -5,-7 -9,-7 -4,0 -7,2 -9,6 -2,5 -3,10 -3,18 0,8 1,14 3,18 2,4 5,6 9,6zm73 -18l18 0 -7 -14c0,-1 0,-2 -1,-3 0,-1 0,-3 -1,-4 0,1 -1,3 -1,4 0,1 -1,2 -1,3l-7 14zm29 25l-7 -16 -25 0 -8 16 -10 0 30 -65 30 65 -10 0zm16 0l0 -65 40 38c1,1 2,2 3,4 1,1 3,2 4,4l0 -44 9 0 0 65 -40 -39c-1,-1 -2,-2 -3,-3 -2,-1 -2,-2 -3,-4l0 44 -10 0zm91 -54l0 54 -10 0 0 -54 -17 0 0 -9 43 0 0 9 -16 0zm24 54l0 -63 35 0 0 9 -25 0 0 16 25 0 0 9 -25 0 0 20 25 0 0 9 -35 0zm47 0l0 -65 40 38c1,1 2,2 3,4 1,1 2,2 3,4l0 -44 10 0 0 65 -41 -39c-1,-1 -2,-2 -3,-3 -1,-1 -2,-2 -3,-4l0 44 -9 0zm70 0l0 -65 40 38c1,1 2,2 3,4 1,1 3,2 4,4l0 -44 9 0 0 65 -40 -39c-1,-1 -2,-2 -4,-3 -1,-1 -1,-2 -2,-4l0 44 -10 0zm84 -25l17 0 -6 -14c0,-1 -1,-2 -1,-3 -1,-1 -1,-3 -1,-4 -1,1 -1,3 -2,4 0,1 0,2 -1,3l-6 14zm28 25l-7 -16 -25 0 -7 16 -11 0 30 -65 31 65 -11 0zm63 -54l0 54 -10 0 0 -54 -16 0 0 -9 43 0 0 9 -17 0zm35 18l2 0c5,0 9,-1 10,-2 2,-1 3,-3 3,-6 0,-4 -1,-6 -3,-8 -2,-1 -5,-2 -10,-2l-2 0 0 18zm-1 8l0 28 -9 0 0 -63 14 0c4,0 7,1 10,1 2,1 4,2 5,3 2,1 4,3 5,6 1,2 2,5 2,8 0,5 -2,9 -4,11 -3,3 -6,5 -11,6l22 28 -12 0 -21 -28 -1 0zm53 3l17 0 -6 -14c0,-1 -1,-2 -1,-3 -1,-1 -1,-3 -1,-4 -1,1 -1,3 -1,4 -1,1 -1,2 -2,3l-6 14zm28 25l-7 -16 -25 0 -7 16 -11 0 31 -65 30 65 -11 0zm66 -47c-3,-3 -6,-5 -10,-6 -3,-1 -6,-2 -10,-2 -7,0 -12,2 -16,7 -5,4 -7,10 -7,17 0,7 2,12 6,17 5,4 10,6 16,6 4,0 7,0 11,-2 3,-1 6,-3 9,-6l0 12c-2,2 -5,3 -9,4 -3,1 -6,2 -10,2 -5,0 -9,-1 -13,-3 -4,-1 -8,-4 -11,-7 -3,-3 -5,-6 -7,-10 -2,-4 -2,-9 -2,-13 0,-5 0,-9 2,-13 2,-4 4,-8 7,-11 3,-3 7,-5 11,-7 4,-1 8,-2 13,-2 4,0 7,0 10,2 4,1 7,2 10,4l0 11zm12 47l0 -63 10 0 0 26 23 -26 12 0 -25 28 28 35 -13 0 -25 -32 0 32 -10 0zm54 0l0 -63 35 0 0 9 -24 0 0 16 24 0 0 9 -24 0 0 20 24 0 0 9 -35 0zm57 -36l2 0c6,0 9,-1 11,-2 2,-1 3,-3 3,-6 0,-4 -1,-6 -3,-8 -2,-1 -6,-2 -11,-2l-2 0 0 18zm0 8l0 28 -10 0 0 -63 14 0c4,0 8,1 10,1 2,1 4,2 6,3 2,1 3,3 4,6 1,2 2,5 2,8 0,5 -1,9 -4,11 -2,3 -6,5 -10,6l21 28 -11 0 -21 -28 -1 0z"/>
   </g>
   <g>
    <path class="fil3" d="M133 204c3,3 4,4 5,8 2,2 3,7 3,10 0,2 -6,13 -8,18 -6,15 -7,33 10,35 18,2 42,-14 55,-24 19,-15 51,-50 53,-79 1,-24 -23,-21 -40,-13 -2,1 -7,4 -9,4 -6,1 -17,-4 -19,-8 4,-3 20,-12 25,-14 18,-7 44,-14 58,3 7,9 10,12 15,24 18,41 6,83 -25,112 -14,13 -29,24 -49,29 -24,5 -45,3 -66,-6 -8,-3 -18,-10 -23,-15 -7,-6 -10,-17 -8,-30 2,-19 14,-42 23,-54z"/>
    <path class="fil3" d="M267 357l-126 0c1,-11 6,-19 14,-26 3,-3 5,-3 10,-2 24,3 46,-1 66,-11 6,-3 4,-4 10,0 2,1 5,3 7,5 11,8 18,21 19,34z"/>
    <path class="fil3" d="M182 179c5,0 29,3 33,5 5,3 5,12 -1,15 -6,3 -30,-3 -33,-2 -2,1 -3,3 -4,4 -1,1 -2,2 -4,3 -1,3 5,28 2,34 -3,6 -12,6 -15,0 -2,-2 -2,-6 -2,-10 -1,-7 -2,-15 -3,-22 -13,-4 -20,-23 -8,-35 8,-8 21,-9 30,-1 3,4 3,5 5,9z"/>
    <path class="fil3" d="M72 83c5,1 7,4 11,8 3,4 6,6 9,9 12,12 2,22 -8,20 -5,-1 -16,-13 -20,-17 -3,-3 -7,-8 -4,-14 1,-4 6,-8 12,-6z"/>
    <path class="fil3" d="M111 122c5,2 7,5 10,8 4,3 7,6 10,10 11,11 0,22 -8,19 -5,-1 -8,-5 -11,-8 -7,-7 -17,-14 -14,-23 2,-4 7,-8 13,-6z"/>
   </g>
  </g>
 </g>
</svg>
