<?xml version="1.0" encoding="UTF-8"?>
<!DOCTYPE svg PUBLIC "-//W3C//DTD SVG 1.1//EN" "http://www.w3.org/Graphics/SVG/1.1/DTD/svg11.dtd">
<!-- Creator: CorelDRAW X7 -->
<svg xmlns="http://www.w3.org/2000/svg" xml:space="preserve" width="188.892mm" height="43.4236mm" version="1.1" style="shape-rendering:geometricPrecision; text-rendering:geometricPrecision; image-rendering:optimizeQuality; fill-rule:evenodd; clip-rule:evenodd"
viewBox="0 0 5820 1338"
 xmlns:xlink="http://www.w3.org/1999/xlink">
 <defs>
  <style type="text/css">
   <![CDATA[
    .fil3 {fill:#FEFEFE;fill-opacity:0.250980}
    .fil0 {fill:#EF7F1A;fill-opacity:0.250980}
    .fil1 {fill:#FEFEFE;fill-rule:nonzero;fill-opacity:0.250980}
    .fil2 {fill:#C5C6C6;fill-rule:nonzero;fill-opacity:0.250980}
   ]]>
  </style>
 </defs>
 <g id="Capa_x0020_1">
  <metadata id="CorelCorpID_0Corel-Layer"/>
  <g id="_2115808545088">
   <path class="fil0" d="M941 1203l18 -14c189,-135 271,-386 230,-586 -22,-106 -48,-164 -113,-255 -95,-133 -274,-226 -430,-235l-68 -2c-12,-21 -22,-97 -32,-111l-201 200c9,5 115,31 136,38l68 19c23,6 46,14 70,18 1,-10 -24,-92 -26,-105 24,-5 62,3 87,5 40,5 103,25 143,43 221,95 351,346 312,580 -18,104 -77,250 -207,343l-23 16c-172,123 -409,115 -569,19 -159,-94 -266,-260 -272,-445 -2,-66 7,-134 27,-195 4,-12 7,-19 12,-32 3,-9 12,-24 13,-32l-50 -24c-18,23 -41,109 -48,138 -5,22 -8,47 -10,71 -8,122 18,268 99,382 65,90 111,134 203,189 176,105 441,110 631,-25z"/>
   <path class="fil1" d="M2111 870c-32,0 -58,-11 -80,-33 -22,-22 -33,-48 -33,-79l0 -38 450 0 0 -150 -262 0 0 -150 262 0 0 -150 -450 0 0 -37c0,-32 11,-58 33,-80 22,-22 48,-33 80,-33l337 0 0 0 1 0 37 0c31,0 57,11 79,33 22,22 33,48 33,80l0 187c0,29 -9,54 -28,75 19,21 28,46 28,75l0 150 0 0 0 0 0 38c0,31 -11,57 -33,79 -22,22 -48,33 -79,33l-375 0z"/>
   <path class="fil1" d="M3273 758c0,31 -11,57 -33,79 -22,22 -48,33 -79,33l-375 0c-32,0 -58,-11 -80,-33 -22,-22 -33,-48 -33,-79l0 -525c0,-32 11,-58 33,-80 22,-22 48,-33 80,-33l375 0c31,0 57,11 79,33 22,22 33,48 33,80l0 37 -450 0 0 450 300 0 0 -150 -187 0 -113 -150 338 0c31,0 57,11 79,33 22,22 33,48 33,80l0 225z"/>
   <path class="fil1" d="M3798 270l-300 0 0 450 300 0 0 -450zm38 -150c31,0 57,11 79,33 22,22 33,48 33,80l0 525c0,31 -11,57 -33,79 -22,22 -48,33 -79,33l-375 0c-32,0 -58,-11 -80,-33 -22,-22 -33,-48 -33,-79l0 -525c0,-32 11,-58 33,-80 22,-22 48,-33 80,-33l375 0z"/>
   <path class="fil0" d="M5191 262c25,0 46,9 64,26 17,17 25,38 25,63l0 30 -238 0 0 477 -119 0 0 -477 -238 0 0 -30c0,-25 9,-46 26,-63 17,-17 39,-26 63,-26l417 0z"/>
   <path class="fil0" d="M4536 262c25,0 46,9 63,26 18,17 26,38 26,63l0 30 -476 0 0 357 357 0 0 -119 -268 -119 387 0 0 268c0,25 -8,46 -26,64 -17,17 -38,26 -63,26l-417 0c-25,0 -46,-9 -63,-27 -18,-17 -26,-38 -26,-63l0 -417c0,-25 8,-46 26,-63 17,-17 38,-26 63,-26l417 0z"/>
   <path class="fil0" d="M1909 768c0,25 -9,46 -26,63 -17,18 -38,27 -63,27l-298 0c-25,0 -46,-9 -64,-27 -17,-17 -26,-38 -26,-63l0 -506 119 0 0 476 239 0 0 -476 119 0 0 506z"/>
   <path class="fil0" d="M5727 262c25,0 46,9 64,26 17,17 26,38 26,63l0 30 -358 0 0 119 268 0c25,0 46,9 64,26 17,17 26,39 26,64l0 178c0,25 -9,46 -26,64 -18,17 -39,26 -64,26l-298 0c-24,0 -45,-9 -63,-27 -17,-17 -26,-38 -26,-63l0 -30 357 0 0 -119 -268 0c-24,0 -45,-8 -63,-26 -17,-17 -26,-38 -26,-63l0 -179c0,-25 9,-46 26,-63 18,-17 39,-26 63,-26l298 0z"/>
   <path class="fil2" d="M1453 1025l30 0 0 113c0,17 3,29 11,38 8,8 19,12 35,12 15,0 27,-4 35,-12 7,-9 11,-21 11,-38l0 -113 30 0 0 116c0,25 -6,44 -19,56 -12,13 -32,19 -57,19 -26,0 -45,-6 -57,-19 -13,-12 -19,-31 -19,-56l0 -116zm194 186l0 -193 118 113c3,4 7,7 10,11 3,3 7,7 10,12l0 -129 28 0 0 193 -120 -115c-4,-4 -7,-7 -10,-10 -3,-4 -6,-8 -8,-11l0 129 -28 0zm209 0l0 -186 31 0 0 186 -31 0zm133 7l-83 -193 31 0 42 99c3,6 5,11 6,16 2,5 3,10 4,14 1,-5 3,-10 4,-15 2,-5 4,-10 6,-15l42 -99 31 0 -83 193zm102 -7l0 -186 104 0 0 26 -74 0 0 46 74 0 0 27 -74 0 0 60 74 0 0 27 -104 0zm168 -107l6 0c16,0 26,-2 32,-5 5,-4 8,-11 8,-20 0,-10 -3,-17 -9,-22 -6,-4 -16,-6 -31,-6l-6 0 0 53zm-2 24l0 83 -28 0 0 -186 42 0c13,0 22,1 29,2 7,2 13,5 17,8 6,5 11,11 14,18 3,7 5,15 5,23 0,15 -4,27 -11,35 -7,9 -18,14 -32,15l64 85 -34 0 -62 -83 -4 0zm107 46l24 -11c3,8 7,14 13,19 6,4 14,6 23,6 9,0 16,-2 22,-7 5,-5 8,-12 8,-20 0,-11 -9,-21 -28,-30 -2,-1 -4,-2 -5,-2 -21,-10 -35,-19 -41,-28 -7,-8 -11,-18 -11,-29 0,-15 5,-28 16,-37 10,-9 24,-14 40,-14 14,0 25,2 35,8 9,5 15,13 19,23l-24 12c-3,-6 -8,-10 -12,-13 -5,-3 -10,-4 -15,-4 -8,0 -15,2 -20,6 -5,4 -7,10 -7,17 0,11 11,22 32,31 1,1 2,2 3,2 19,9 31,17 38,25 7,8 11,18 11,30 0,18 -6,32 -17,42 -11,11 -26,16 -45,16 -16,0 -29,-4 -39,-11 -10,-7 -17,-18 -20,-31zm193 -36l52 0 -19 -43c-2,-2 -3,-5 -4,-9 -1,-3 -2,-7 -3,-12 -1,4 -3,8 -4,12 -1,3 -2,7 -3,9l-19 43zm83 73l-21 -48 -73 0 -22 48 -32 0 90 -193 90 193 -32 0zm50 0l0 -186 30 0 0 159 68 0 0 27 -98 0zm191 -50l29 0 0 2c0,8 3,15 9,20 6,5 14,8 24,8 11,0 20,-3 26,-9 6,-5 9,-13 9,-24 0,-11 -3,-19 -10,-25 -6,-6 -15,-8 -28,-8 0,0 -1,0 -3,0 -1,0 -2,0 -3,0l0 -25c1,0 2,0 3,1 1,0 2,0 3,0 11,0 19,-3 25,-7 5,-5 8,-12 8,-21 0,-8 -2,-14 -7,-19 -5,-4 -12,-7 -21,-7 -9,0 -16,3 -21,7 -5,4 -8,10 -8,18l-27 0c1,-15 6,-28 16,-36 10,-9 24,-13 41,-13 17,0 31,5 41,13 10,9 15,21 15,37 0,11 -3,20 -9,28 -6,7 -13,11 -23,13 11,2 20,7 27,15 6,9 9,19 9,33 0,17 -6,30 -18,39 -11,10 -27,15 -47,15 -17,0 -32,-5 -43,-15 -11,-10 -16,-23 -17,-40zm188 -7c0,11 3,20 10,27 6,7 14,10 24,10 11,0 19,-3 26,-10 6,-7 9,-16 9,-27 0,-12 -3,-21 -9,-27 -6,-7 -15,-10 -26,-10 -10,0 -18,3 -24,10 -6,7 -10,16 -10,27zm17 -56c4,-2 9,-3 13,-4 4,-1 8,-2 12,-2 16,0 30,6 41,17 10,11 16,26 16,43 0,19 -6,35 -18,46 -12,12 -28,18 -48,18 -19,0 -33,-6 -45,-17 -11,-12 -16,-27 -16,-45 0,-20 13,-49 40,-87l3 -5 33 -46 23 12 -54 70zm243 23c0,30 -6,53 -18,70 -12,17 -28,25 -49,25 -21,0 -38,-9 -49,-25 -12,-17 -18,-41 -18,-72 0,-30 6,-54 18,-70 12,-17 28,-26 49,-26 21,0 38,9 49,26 12,17 18,41 18,72zm-68 69c13,0 22,-6 28,-18 6,-12 10,-29 10,-53 0,-23 -4,-40 -10,-52 -6,-12 -15,-18 -27,-18 -12,0 -21,6 -27,18 -7,12 -10,29 -10,53 0,22 3,40 10,52 6,12 15,18 26,18zm219 -52l51 0 -19 -43c-1,-2 -2,-5 -3,-9 -1,-3 -3,-7 -4,-12 -1,4 -2,8 -3,12 -1,3 -2,7 -3,9l-19 43zm83 73l-21 -48 -74 0 -21 48 -32 0 90 -193 90 193 -32 0zm49 0l0 -193 119 113c3,4 6,7 9,11 4,3 7,7 11,12l0 -129 28 0 0 193 -121 -115c-3,-4 -6,-7 -9,-10 -3,-4 -6,-8 -9,-11l0 129 -28 0zm269 -160l0 160 -30 0 0 -160 -49 0 0 -26 129 0 0 26 -50 0zm73 160l0 -186 103 0 0 26 -73 0 0 46 73 0 0 27 -73 0 0 60 73 0 0 27 -103 0zm138 0l0 -193 118 113c3,4 7,7 10,11 3,3 7,7 10,12l0 -129 28 0 0 193 -120 -115c-3,-4 -7,-7 -10,-10 -3,-4 -5,-8 -8,-11l0 129 -28 0zm209 0l0 -193 118 113c3,4 7,7 10,11 3,3 7,7 10,12l0 -129 28 0 0 193 -120 -115c-4,-4 -7,-7 -10,-10 -3,-4 -6,-8 -8,-11l0 129 -28 0zm248 -73l52 0 -19 -43c-1,-2 -2,-5 -4,-9 -1,-3 -2,-7 -3,-12 -1,4 -2,8 -3,12 -2,3 -3,7 -4,9l-19 43zm84 73l-21 -48 -74 0 -22 48 -31 0 90 -193 90 193 -32 0zm188 -160l0 160 -31 0 0 -160 -49 0 0 -26 129 0 0 26 -49 0zm102 53l6 0c16,0 26,-2 31,-5 6,-4 8,-11 8,-20 0,-10 -3,-17 -8,-22 -6,-4 -16,-6 -31,-6l-6 0 0 53zm-2 24l0 83 -28 0 0 -186 42 0c12,0 22,1 29,2 7,2 12,5 17,8 6,5 10,11 14,18 3,7 4,15 4,23 0,15 -3,27 -11,35 -7,9 -17,14 -31,15l64 85 -35 0 -61 -83 -4 0zm157 10l52 0 -19 -43c-2,-2 -3,-5 -4,-9 -1,-3 -2,-7 -3,-12 -1,4 -3,8 -4,12 -1,3 -2,7 -3,9l-19 43zm83 73l-21 -48 -73 0 -22 48 -32 0 90 -193 90 193 -32 0zm194 -141c-8,-7 -17,-12 -27,-16 -9,-4 -19,-6 -30,-6 -20,0 -37,7 -49,20 -13,13 -19,30 -19,51 0,20 6,36 18,49 13,13 28,20 47,20 11,0 21,-2 31,-6 10,-4 20,-10 29,-18l0 34c-8,6 -17,11 -26,14 -10,2 -20,4 -32,4 -14,0 -27,-2 -39,-7 -12,-5 -23,-12 -32,-21 -9,-9 -16,-19 -21,-31 -5,-12 -7,-25 -7,-39 0,-13 2,-26 7,-38 5,-12 12,-23 22,-32 9,-9 19,-16 31,-20 12,-5 25,-7 39,-7 11,0 21,1 31,4 10,4 20,8 29,15l-2 30zm38 141l0 -186 30 0 0 77 67 -77 37 0 -74 83 83 103 -39 0 -74 -95 0 95 -30 0zm161 0l0 -186 104 0 0 26 -74 0 0 46 74 0 0 27 -74 0 0 60 74 0 0 27 -104 0zm169 -107l5 0c16,0 27,-2 32,-5 5,-4 8,-11 8,-20 0,-10 -3,-17 -9,-22 -5,-4 -16,-6 -31,-6l-5 0 0 53zm-2 24l0 83 -29 0 0 -186 43 0c12,0 22,1 28,2 7,2 13,5 18,8 6,5 10,11 13,18 3,7 5,15 5,23 0,15 -4,27 -11,35 -7,9 -18,14 -32,15l64 85 -34 0 -62 -83 -3 0z"/>
   <g>
    <path class="fil3" d="M395 606c8,8 11,12 16,22 3,8 8,21 7,32 0,4 -19,38 -25,53 -16,43 -20,97 32,103 53,7 124,-40 163,-71 56,-46 152,-148 157,-234 4,-73 -68,-62 -118,-40 -8,4 -21,12 -28,13 -17,3 -50,-13 -55,-24 11,-10 57,-34 73,-41 53,-22 130,-43 172,9 22,26 30,35 45,70 53,121 17,246 -75,333 -41,39 -85,71 -144,85 -71,17 -134,9 -196,-16 -24,-10 -55,-29 -69,-44 -20,-19 -29,-52 -25,-90 6,-57 43,-124 70,-160z"/>
    <path class="fil3" d="M791 1061l-371 0c2,-34 17,-59 40,-79 10,-9 13,-10 30,-7 70,10 136,-3 197,-32 16,-8 10,-10 27,-1 8,4 15,9 23,15 32,24 54,63 54,104z"/>
    <path class="fil3" d="M541 532c13,1 86,7 96,13 17,9 17,37 -1,45 -18,9 -91,-9 -100,-6 -3,3 -7,9 -10,12 -3,3 -8,6 -12,10 -5,8 13,82 6,99 -8,20 -36,20 -46,3 -5,-9 -5,-21 -6,-32 -2,-21 -4,-44 -7,-65 -40,-10 -62,-68 -25,-104 23,-25 64,-26 89,-1 9,9 10,14 16,26z"/>
    <path class="fil3" d="M213 246c16,4 20,11 32,24 11,11 19,18 29,28 34,34 4,65 -23,59 -16,-3 -48,-40 -61,-52 -8,-8 -19,-22 -12,-40 4,-12 18,-24 35,-19z"/>
    <path class="fil3" d="M329 362c15,5 22,16 31,24 10,10 19,19 29,29 34,34 1,65 -25,58 -13,-3 -24,-17 -31,-25 -21,-21 -52,-42 -41,-68 5,-11 19,-23 37,-18z"/>
   </g>
  </g>
 </g>
</svg>
